<svg width="16" height="16" viewBox="0 0 16 16" fill="none" xmlns="http://www.w3.org/2000/svg">
<g clip-path="url(#clip0_2_6)">
<path d="M8.32 3.19995H7.68V7.67995H3.2V8.31995H7.68V12.8H8.32V8.31995H12.8V7.67995H8.32V3.19995Z" fill="black"/>
<path d="M8 0C6.41775 0 4.87104 0.469192 3.55544 1.34824C2.23985 2.22729 1.21447 3.47672 0.608967 4.93853C0.00346629 6.40034 -0.15496 8.00888 0.153721 9.56072C0.462403 11.1126 1.22433 12.538 2.34315 13.6569C3.46197 14.7757 4.88743 15.5376 6.43928 15.8463C7.99113 16.155 9.59966 15.9965 11.0615 15.391C12.5233 14.7855 13.7727 13.7602 14.6518 12.4446C15.5308 11.129 16 9.58225 16 8C16 5.87827 15.1572 3.84344 13.6569 2.34315C12.1566 0.842855 10.1217 0 8 0ZM8 14.9333C6.62872 14.9333 5.28823 14.5267 4.14805 13.7649C3.00787 13.003 2.11921 11.9202 1.59444 10.6533C1.06967 9.38637 0.932368 7.99231 1.19989 6.64737C1.46742 5.30244 2.12775 4.06704 3.0974 3.09739C4.06704 2.12775 5.30244 1.46741 6.64738 1.19989C7.99231 0.932365 9.38638 1.06967 10.6533 1.59444C11.9202 2.1192 13.003 3.00787 13.7649 4.14805C14.5267 5.28823 14.9333 6.62872 14.9333 8C14.9305 9.83797 14.1991 11.5999 12.8995 12.8995C11.5999 14.1991 9.83797 14.9305 8 14.9333Z" fill="black"/>
</g>
<defs>
<clipPath id="clip0_2_6">
<rect width="16" height="16" fill="white"/>
</clipPath>
</defs>
</svg>
